<svg width="1300" height="499" viewBox="0 0 1300 499" xmlns="http://www.w3.org/2000/svg" xmlns:xlink="http://www.w3.org/1999/xlink" overflow="hidden"><defs><radialGradient cx="116.708%" cy="110.133%" r="147.8%" fx="116.708%" fy="110.133%" id="radialGradient-1" gradientTransform="matrix(-0.337465 -0.33324 0.119274 -0.942842 1.42957 2.52863)"><stop offset="0" stop-color="#0069FF"/><stop offset="0.029125" stop-color="#0269FD"/><stop offset="0.0450534" stop-color="#0369FC"/><stop offset="0.0600516" stop-color="#0468FB"/><stop offset="0.254822" stop-color="#1165EF"/><stop offset="1" stop-color="#4457C0"/></radialGradient></defs><g id="Ressource" fill="none" fill-rule="evenodd"><g id="wave_background"><g id="Group-4"><path d="M0 1.89327e-29 1300-2.84217e-14C1299.84 99.0658 1299.84 259.046 1300 479.94 939.379 522.289 978.893 439.695 650 450.952 321.107 462.209 306.59 511.2 0 450.952 1 327.508 1 177.191 0 1.89327e-29Z" id="Wave" fill="#61DEE1"/><path d="M1.00077 0 925.701 0 1302 0C1302 223.961 1302 366.85 1302 428.667 1221.61 416.745 1147.81 399.335 958.282 416.745 768.75 434.155 701.824 503.79 426.322 437.775 242.654 393.765 100.88 397.003 1.00077 447.49L1.00077 0Z" id="Wave" fill="#61DEE1" transform="matrix(-1 0 0 1 1303 0)"/></g></g></g></svg>